<?xml version="1.0" standalone="no"?>
<!DOCTYPE svg PUBLIC "-//W3C//DTD SVG 20010904//EN"
 "http://www.w3.org/TR/2001/REC-SVG-20010904/DTD/svg10.dtd">
<svg version="1.0" xmlns="http://www.w3.org/2000/svg"
 width="523.000000pt" height="523.000000pt" viewBox="0 0 523.000000 523.000000"
 preserveAspectRatio="xMidYMid meet">
<metadata>
Created by potrace 1.11, written by Peter Selinger 2001-2013
</metadata>
<g transform="translate(0.000000,523.000000) scale(0.100000,-0.100000)"
fill="#000000" stroke="none">
<path d="M1034 4932 c-12 -9 -27 -27 -33 -39 -8 -16 -11 -637 -11 -2283 l0
-2262 34 -34 34 -34 1642 0 1642 0 34 34 c29 29 34 41 34 79 0 44 -26 82 -924
1341 -508 712 -927 1300 -931 1306 -3 5 379 393 850 862 471 468 863 864 871
879 27 53 9 135 -35 159 -13 7 -536 10 -1603 10 -1485 0 -1584 -2 -1604 -18z
m296 -2317 l0 -2105 -55 0 -55 0 0 2105 0 2105 55 0 55 0 0 -2105z m350 0 l0
-2105 -55 0 -55 0 0 2105 0 2105 55 0 55 0 0 -2105z m2130 2022 c-47 -46 -493
-490 -992 -987 l-908 -904 0 987 0 987 992 0 993 0 -85 -83z m-605 -2912 c439
-616 813 -1141 832 -1167 l35 -48 -1081 0 -1081 0 0 952 0 953 232 232 c218
219 234 232 249 215 9 -9 375 -521 814 -1137z"/>
</g>
</svg>
